# xmcd
#
# Track frame offsets:
#	182
#	21005
#	33800
#	63320
#	81037
#	97450
#	116480
#	132282
#	149177
#	167065
#	181670
#
# Disc length: 2628 seconds
#
# Revision: 1
# Processed by: cddbd v1.5.2PL0 Copyright (c) Steve Scherf et al.
# Submitted via: audiograbber 1.83.01
#
DISCID=940a420b
DTITLE=Hangman Jury - On Parole
DYEAR=1900
DGENRE=Country
TTITLE0=Am I Losing You
TTITLE1=I Don't Want You To Go
TTITLE2=Ballad Of Emmet Jackson
TTITLE3=On Easy Street
TTITLE4=Still Believe
TTITLE5=Life Goes On
TTITLE6=My Sweet Georgia
TTITLE7=On Parole
TTITLE8=You're My Angel
TTITLE9=Cruisin'
TTITLE10=Moonshine Creek
EXTD=
EXTT0=
EXTT1=
EXTT2=
EXTT3=
EXTT4=
EXTT5=
EXTT6=
EXTT7=
EXTT8=
EXTT9=
EXTT10=
PLAYORDER=
